# xmcd CD database file generated by libcdaudio 0.99.6
# 
# Track frame offsets:
#       150
#       18365
#       41893
#       55792
#       75226
#       93447
#       118296
#       136292
#       150755
#       171301
# 
# Disc length: 3066 seconds
# 
# Revision: 1
# Processed by: cddbd v1.4PL0 Copyright (c) Steve Scherf et al.
# Submitted via: libcdaudio 0.99.6
# 
DISCID=740bf80a
DTITLE=Anthrax - 
DYEAR=1900
DGENRE=
TTITLE0=Random Acts Of Senseless Violance
TTITLE1=Harms Way
TTITLE2=Alpha Male
TTITLE3=Born Again Idiot
TTITLE4=Fueled
TTITLE5=Inside Out
TTITLE6=King Size
TTITLE7=P and V
TTITLE8=Nothing
TTITLE9=Stealing From a Theif
EXTD=
EXTT0=
EXTT1=
EXTT2=
EXTT3=
EXTT4=
EXTT5=
EXTT6=
EXTT7=
EXTT8=
EXTT9=
PLAYORDER=
